<?xml version="1.0" encoding="utf-8"?>
<!-- Generator: Adobe Illustrator 18.1.1, SVG Export Plug-In . SVG Version: 6.00 Build 0)  -->
<svg fill="#329899" xmlns="http://www.w3.org/2000/svg" version="1" width="50" height="50" viewBox="0 0 50 50">
    <path d="M 24.875 3.3125 C 20.18258 3.4179476 17.213416 5.3153925 15.9375 8.25 C 14.722401 11.044728 14.976908 14.561897 15.84375 18.21875 C 15.378281 18.765687 14.997582 19.533484 15.09375 20.6875 L 15.09375 20.71875 L 15.09375 20.75 C 15.260194 21.970588 15.627277 22.827497 16.09375 23.4375 C 16.321954 23.735921 16.654456 23.740973 16.9375 23.90625 C 17.105397 24.986916 17.427694 26.054976 17.875 26.9375 C 18.128614 27.437874 18.381049 27.878756 18.65625 28.25 C 18.782232 28.419949 18.962772 28.515284 19.09375 28.65625 C 19.10577 29.962866 19.1562 30.95883 19 32.28125 C 18.753233 32.90055 18.189452 33.407092 17.34375 33.90625 A 1.0001 1.0001 0 0 0 17.15625 34 A 1.0001 1.0001 0 0 0 17 34.09375 A 1.0001 1.0001 0 0 0 16.84375 34.21875 C 16.813384 34.234396 16.780968 34.234354 16.75 34.25 C 15.497424 34.882819 13.854772 35.466518 12.1875 36.1875 C 10.520228 36.908482 8.826495 37.77573 7.46875 39.15625 C 6.111005 40.53677 5.1369927 42.444232 5 44.9375 L 4.9375 46 L 6 46 L 44 46 L 45.0625 46 L 45 44.9375 C 44.863107 42.446055 43.913967 40.537516 42.5625 39.15625 C 41.211033 37.774984 39.511883 36.908855 37.84375 36.1875 C 36.175617 35.466145 34.524765 34.885197 33.25 34.25 C 33.205334 34.227744 33.168461 34.209803 33.125 34.1875 A 1.0001 1.0001 0 0 0 33.0625 34.15625 C 33.049456 34.149454 33.044183 34.131802 33.03125 34.125 A 1.0001 1.0001 0 0 0 32.78125 33.96875 C 32.753449 33.953088 32.714722 33.953208 32.6875 33.9375 A 1.0001 1.0001 0 0 0 32.59375 33.90625 C 31.737837 33.399984 31.176515 32.853208 30.90625 32.21875 C 30.829519 30.893899 30.81297 29.87936 30.8125 28.625 C 30.930486 28.490625 31.105607 28.407929 31.21875 28.25 C 31.485664 27.877433 31.754883 27.434544 32 26.9375 C 32.431995 26.061511 32.765941 24.990021 32.96875 23.9375 C 33.289793 23.774313 33.657315 23.763031 33.90625 23.4375 C 34.387755 22.80784 34.669748 21.914027 34.78125 20.6875 C 34.86934 19.630463 34.567276 18.860912 34.09375 18.28125 C 34.614087 16.678163 35.229701 14.117068 35.03125 11.5 C 34.92229 10.063091 34.542308 8.6308269 33.6875 7.4375 C 32.915843 6.3602537 31.663622 5.6201187 30.09375 5.28125 C 29.03533 3.8674576 27.111401 3.3125 24.90625 3.3125 L 24.875 3.3125 z M 24.90625 5.3125 C 24.91874 5.3125 24.92507 5.3124552 24.9375 5.3125 C 26.934359 5.3197 28.209545 5.8815416 28.625 6.59375 L 28.875 7.03125 L 29.375 7.09375 C 30.748239 7.2868617 31.504808 7.8152019 32.0625 8.59375 C 32.620192 9.3722981 32.94021 10.455659 33.03125 11.65625 C 33.21333 14.057432 32.519634 16.876276 32.0625 18.15625 L 31.75 19 L 32.53125 19.40625 C 32.523543 19.434675 32.85239 19.765997 32.8125 20.5 C 32.811 20.51632 32.8141 20.51519 32.8125 20.53125 C 32.72051 21.473313 32.478171 22.002103 32.3125 22.21875 C 32.144005 22.43909 32.060417 22.40625 32.09375 22.40625 L 31.21875 22.40625 L 31.125 23.25 C 30.996056 24.152608 30.628515 25.200337 30.21875 26.03125 C 30.013867 26.446706 29.776836 26.838192 29.59375 27.09375 C 29.410664 27.349308 29.229253 27.48507 29.3125 27.4375 L 28.8125 27.71875 L 28.8125 28.3125 C 28.8125 29.31963 28.815322 30.191107 28.84375 31.125 L 25 33.25 L 21.09375 31.09375 C 21.122245 30.134943 21.09375 29.28654 21.09375 28.3125 L 21.09375 27.71875 L 20.59375 27.4375 C 20.66809 27.47998 20.471674 27.319381 20.28125 27.0625 C 20.090826 26.805619 19.865136 26.443376 19.65625 26.03125 C 19.238478 25.206997 18.86378 24.17906 18.78125 23.3125 L 18.71875 22.40625 L 17.875 22.40625 C 17.840129 22.389375 17.748015 22.33875 17.65625 22.21875 C 17.478664 21.986522 17.230786 21.451164 17.09375 20.53125 C 17.09205 20.5112 17.09475 20.51956 17.09375 20.5 C 17.09155 20.48438 17.09595 20.4846 17.09375 20.46875 C 17.07772 19.710532 17.548752 19.290415 17.46875 19.34375 L 18.03125 18.9375 L 17.875 18.25 C 16.952145 14.607151 16.807166 11.302893 17.78125 9.0625 C 18.752632 6.8283223 20.722691 5.4141553 24.90625 5.3125 z M 20.78125 33.21875 L 23.25 34.59375 L 21 37.40625 L 19.125 35.15625 C 19.81954 34.635035 20.417101 34.013447 20.78125 33.21875 z M 29.15625 33.25 C 29.550552 34.037232 30.166023 34.639662 30.875 35.15625 L 29 37.40625 L 26.75 34.59375 L 29.15625 33.25 z M 17.40625 36.1875 L 20.21875 39.625 A 1.0001 1.0001 0 0 0 21.78125 39.625 L 23.75 37.1875 L 24.5 37.8125 C 24.5 37.8125 22.720327 40.805448 22.21875 44 L 7.25 44 C 7.5253473 42.575424 8.0266515 41.425079 8.875 40.5625 C 9.93913 39.48052 11.429772 38.710268 13 38.03125 C 14.482057 37.39036 16.022924 36.859087 17.40625 36.1875 z M 32.59375 36.1875 C 33.991628 36.857362 35.550005 37.390712 37.03125 38.03125 C 38.600617 38.709895 40.067092 39.481266 41.125 40.5625 C 41.968388 41.424485 42.475983 42.574326 42.75 44 L 27.78125 44 C 27.280523 40.761569 25.5 37.8125 25.5 37.8125 L 26.25 37.1875 L 28.21875 39.625 A 1.0001 1.0001 0 0 0 29.78125 39.625 L 32.59375 36.1875 z"></path>
</svg>
