<?xml version="1.0" encoding="utf-8"?>
<!-- Generator: Adobe Illustrator 15.0.0, SVG Export Plug-In . SVG Version: 6.00 Build 0)  -->
<!DOCTYPE svg PUBLIC "-//W3C//DTD SVG 1.1//EN" "http://www.w3.org/Graphics/SVG/1.1/DTD/svg11.dtd">
<svg fill="#fff" version="1.1" id="Слой_1" xmlns="http://www.w3.org/2000/svg" xmlns:xlink="http://www.w3.org/1999/xlink" x="0px" y="0px"
	 width="50px" height="50px" viewBox="0 0 50 50" enable-background="new 0 0 50 50" xml:space="preserve">
<path d="M25,10c-8.271,0-15,6.729-15,15c0,8.271,6.729,15,15,15c8.271,0,15-6.729,15-15C40,16.729,33.271,10,25,10z M25,35
	c-5.522,0-10-4.477-10-10c0-5.524,4.478-10,10-10c5.521,0,10,4.476,10,10C35,30.523,30.521,35,25,35z"/>
<g>
	<path d="M40,0H10C4.486,0,0,4.486,0,10v30c0,5.514,4.486,10,10,10h30c5.514,0,10-4.486,10-10V10C50,4.486,45.514,0,40,0z
		 M44,39.773C44,42.104,42.104,44,39.773,44H10.227C7.896,44,6,42.104,6,39.773V17h4.008C12.875,11.65,18.517,8,25,8
		c6.482,0,12.125,3.65,14.992,9H44V39.773z M45,10.5c0,0.826-0.674,1.5-1.5,1.5h-3c-0.826,0-1.5-0.674-1.5-1.5v-3
		C39,6.674,39.674,6,40.5,6h3C44.326,6,45,6.674,45,7.5V10.5z"/>
</g>
</svg>
