<?xml version="1.0" encoding="utf-8"?>
<!-- Generator: Adobe Illustrator 15.0.0, SVG Export Plug-In . SVG Version: 6.00 Build 0)  -->
<!DOCTYPE svg PUBLIC "-//W3C//DTD SVG 1.1//EN" "http://www.w3.org/Graphics/SVG/1.1/DTD/svg11.dtd">
<svg fill="#fff" version="1.1" id="Слой_1" xmlns="http://www.w3.org/2000/svg" xmlns:xlink="http://www.w3.org/1999/xlink" x="0px" y="0px"
	 width="50px" height="50px" viewBox="0 0 50 50" enable-background="new 0 0 50 50" xml:space="preserve">
<path d="M25,0C11.215,0,0,11.215,0,25s11.215,25,25,25s25-11.215,25-25S38.785,0,25,0z M27.959,33.797
	c-3.412,0-4.674-2.283-4.674-2.283s-0.608,2.467-1.057,4.221c-0.449,1.754-0.525,1.779-0.959,2.769
	c-0.487,1.11-1.683,2.856-2.035,3.396c-0.28,0.428-0.628,0.785-0.832,0.744c-0.204-0.041-0.204-0.263-0.254-0.725
	c-0.068-0.636-0.267-2.771-0.172-4.216c0.062-0.94,0.38-2.533,0.38-2.533l2.303-9.732c-1.416-2.999-0.255-7.685,2.971-7.685
	c2.288,0,2.888,2.138,2.187,4.708c-0.312,1.146-1.29,4.362-1.319,4.513c-0.03,0.152-0.102,0.473-0.086,0.789
	c0,0.938,0.694,2.855,3.101,2.855c3.875,0,5.709-5.914,5.709-9.87c0-3.181-1.957-7.023-7.675-7.023
	c-5.825,0-9.037,4.576-9.037,8.777c0,2.356,0.9,3.304,1.317,3.822c0.339,0.422,0.168,0.827,0.168,0.827l-0.367,1.522
	c-0.136,0.503-0.571,0.763-1.183,0.394c-0.612-0.367-3.535-1.646-3.535-7.098c0-5.588,5.098-11.379,13.01-11.379
	c6.281,0,11.828,4.079,11.828,10.686C37.747,29.434,32.813,33.797,27.959,33.797z"/>
</svg>
