<?xml version="1.0" encoding="utf-8"?>
<!-- Generator: Adobe Illustrator 16.0.0, SVG Export Plug-In . SVG Version: 6.00 Build 0)  -->
<!DOCTYPE svg PUBLIC "-//W3C//DTD SVG 1.1//EN" "http://www.w3.org/Graphics/SVG/1.1/DTD/svg11.dtd">
<svg version="1.1" id="Calque_1" xmlns="http://www.w3.org/2000/svg" xmlns:xlink="http://www.w3.org/1999/xlink" x="0px" y="0px"
	 width="1190.55px" height="841.89px" viewBox="0 0 1190.55 841.89" enable-background="new 0 0 1190.55 841.89"
	 xml:space="preserve">
<g>
	<g>
		<g>
			<rect x="145.6" y="259.71" fill="#339999" width="293.1" height="293.1"/>
			<path fill="#339999" d="M438.7,553.749H145.6c-0.519,0-0.939-0.418-0.939-0.939v-293.1c0-0.519,0.42-0.939,0.939-0.939h293.1
				c0.52,0,0.94,0.42,0.94,0.939v293.1C439.64,553.331,439.219,553.749,438.7,553.749z M146.54,551.871h291.221V260.65H146.54
				V551.871z"/>
		</g>
		<path d="M359.789,584.751H66.688c-1.038,0-1.878-0.842-1.878-1.88v-293.1c0-1.036,0.841-1.878,1.878-1.878h293.101
			c1.037,0,1.878,0.842,1.878,1.878v293.1C361.667,583.909,360.826,584.751,359.789,584.751z M68.568,580.993H357.91V291.651H68.568
			V580.993z"/>
		<path d="M530.433,490.808h-293.1c-1.038,0-1.878-0.841-1.878-1.877V342.379c0-1.038,0.84-1.878,1.878-1.878h293.1
			c1.038,0,1.878,0.841,1.878,1.878v146.551C532.312,489.967,531.471,490.808,530.433,490.808z M239.212,487.051h289.342V344.258
			H239.212V487.051z"/>
	</g>
	<g>
		<path d="M580.73,449.576c0-5.391,0.736-10.029,2.211-13.916c1.474-3.883,3.468-6.866,5.986-8.951
			c4.746-3.813,10.535-5.717,17.367-5.717c4.169,0,7.908,0.505,11.219,1.509c3.305,1.009,4.96,2.157,4.96,3.453
			c0,0.936-0.413,2.139-1.24,3.614c-0.827,1.477-1.563,2.209-2.211,2.209c-0.072,0-0.199-0.033-0.378-0.105
			c-0.18-0.069-0.324-0.125-0.431-0.162c-0.108-0.037-0.234-0.093-0.379-0.161c-3.882-1.729-7.803-2.591-11.757-2.591
			c-10.427,0-15.639,6.869-15.639,20.602c0,7.625,1.273,13.126,3.829,16.506c2.552,3.381,6.849,5.067,12.89,5.067
			c4.385,0,8.448-0.93,12.188-2.803c0.218-0.07,0.448-0.162,0.701-0.269c0.25-0.108,0.412-0.164,0.486-0.164
			c0.717,0,1.509,0.706,2.372,2.105c0.861,1.402,1.293,2.534,1.293,3.398c0,1.292-1.688,2.531-5.069,3.721
			c-3.379,1.188-7.334,1.779-11.863,1.779c-8.918,0-15.57-2.298-19.955-6.906C582.923,467.198,580.73,459.788,580.73,449.576z"/>
		<path d="M658.338,478.701c-8.091,0-14.277-2.442-18.553-7.334c-4.281-4.894-6.42-11.989-6.42-21.304
			c0-9.313,2.157-16.486,6.474-21.521c4.313-5.032,10.462-7.55,18.443-7.55c7.982,0,14.075,2.5,18.283,7.497
			c4.206,4.998,6.312,12.188,6.312,21.575c0,9.384-2.069,16.502-6.201,21.358C672.537,476.272,666.427,478.701,658.338,478.701z
			 M646.524,465.81c2.444,3.417,6.291,5.123,11.544,5.123c5.247,0,9.129-1.706,11.648-5.123c2.517-3.411,3.773-8.719,3.773-15.911
			c0-7.189-1.257-12.509-3.773-15.963c-2.52-3.449-6.401-5.178-11.648-5.178c-5.253,0-9.1,1.71-11.544,5.123
			c-2.444,3.416-3.667,8.736-3.667,15.967C642.857,457.073,644.08,462.398,646.524,465.81z"/>
		<path d="M698.084,475.896v-37.86c0-4.387-0.183-7.514-0.541-9.385c-0.505-2.59-0.756-3.992-0.756-4.205
			c0-0.865,0.684-1.492,2.05-1.889c1.365-0.395,2.427-0.594,3.183-0.594c0.755,0,1.276,0.073,1.564,0.217
			c0.286,0.145,0.557,0.377,0.809,0.701c0.25,0.321,0.448,0.648,0.593,0.971s0.287,0.756,0.432,1.295
			c0.144,0.539,0.271,0.971,0.378,1.291c0.107,0.324,0.215,0.793,0.322,1.402c0.109,0.612,0.197,1.029,0.27,1.242
			c4.818-5.392,10.194-8.09,16.127-8.09c5.931,0,10.463,1.548,13.59,4.639c3.129,3.094,4.694,7.373,4.694,12.836v37.429
			c0,1.583-1.44,2.373-4.315,2.373h-0.433c-2.876,0-4.315-0.79-4.315-2.373v-36.566c0-3.306-0.952-5.878-2.855-7.714
			c-1.907-1.83-4.623-2.746-8.145-2.746c-5.179,0-9.709,2.516-13.592,7.547v39.479c0,1.583-1.44,2.373-4.315,2.373h-0.431
			C699.521,478.269,698.084,477.479,698.084,475.896z"/>
		<path d="M754.496,449.576c0-5.391,0.736-10.029,2.211-13.916c1.474-3.883,3.468-6.866,5.987-8.951
			c4.745-3.813,10.533-5.717,17.364-5.717c4.17,0,7.909,0.505,11.221,1.509c3.306,1.009,4.96,2.157,4.96,3.453
			c0,0.936-0.414,2.139-1.239,3.614c-0.828,1.477-1.566,2.209-2.213,2.209c-0.071,0-0.198-0.033-0.377-0.105
			c-0.179-0.069-0.323-0.125-0.43-0.162c-0.11-0.037-0.236-0.093-0.38-0.161c-3.882-1.729-7.803-2.591-11.757-2.591
			c-10.428,0-15.641,6.869-15.641,20.602c0,7.625,1.276,13.126,3.83,16.506c2.552,3.381,6.85,5.067,12.889,5.067
			c4.385,0,8.45-0.93,12.19-2.803c0.215-0.07,0.447-0.162,0.7-0.269c0.25-0.108,0.413-0.164,0.484-0.164
			c0.719,0,1.511,0.706,2.375,2.105c0.861,1.402,1.292,2.534,1.292,3.398c0,1.292-1.688,2.531-5.069,3.721
			c-3.381,1.188-7.333,1.779-11.863,1.779c-8.918,0-15.571-2.298-19.955-6.906C756.688,467.198,754.496,459.788,754.496,449.576z"/>
		<path d="M813.604,471.688c-4.314-4.675-6.473-11.812-6.473-21.412s2.121-16.88,6.365-21.841c4.242-4.963,10.283-7.444,18.12-7.444
			c15.243,0,22.867,9.384,22.867,28.155c0,0.646-0.431,1.544-1.293,2.696c-0.864,1.15-1.618,1.725-2.266,1.725h-34.086
			c0.431,5.972,1.979,10.357,4.638,13.161c2.66,2.804,6.652,4.204,11.975,4.204c4.888,0,9.383-1.147,13.482-3.448
			c1.365-0.72,2.12-1.08,2.265-1.08c0.718,0,1.528,0.721,2.427,2.159c0.899,1.439,1.35,2.517,1.35,3.231
			c0,1.441-1.96,2.952-5.88,4.532c-3.919,1.582-8.432,2.374-13.537,2.374C824.568,478.701,817.917,476.365,813.604,471.688z
			 M844.884,445.8c0-11.362-4.315-17.042-12.943-17.042c-9.276,0-14.312,5.68-15.102,17.042H844.884z"/>
		<path d="M877.674,498.117c0,1.579-1.44,2.371-4.314,2.371h-0.433c-2.877,0-4.313-0.792-4.313-2.371v-60.082
			c0-4.387-0.183-7.514-0.539-9.385c-0.506-2.59-0.757-3.992-0.757-4.205c0-0.865,0.682-1.492,2.048-1.889
			c1.366-0.395,2.429-0.594,3.182-0.594c0.757,0,1.278,0.073,1.566,0.217c0.287,0.145,0.556,0.377,0.81,0.701
			c0.251,0.321,0.447,0.648,0.593,0.971c0.143,0.322,0.284,0.756,0.432,1.295c0.142,0.539,0.27,0.971,0.377,1.291
			c0.108,0.324,0.216,0.793,0.322,1.402c0.108,0.612,0.199,1.029,0.271,1.242c5.177-5.392,10.929-8.09,17.258-8.09
			c6.328,0,11.381,2.663,15.155,7.983c3.776,5.32,5.663,12.152,5.663,20.495v0.97c0,8.847-2.013,15.768-6.04,20.766
			c-4.028,4.998-9.06,7.496-15.101,7.496c-6.039,0-11.433-1.835-16.18-5.5V498.117z M890.724,470.717h0.649
			c4.601-0.068,8.105-1.83,10.517-5.284c2.407-3.45,3.612-8.521,3.612-15.206c0-6.691-1.149-11.92-3.45-15.697
			c-2.303-3.773-5.807-5.66-10.518-5.66c-4.71,0-9.331,2.479-13.86,7.439v29.557C881.557,469.102,885.907,470.717,890.724,470.717z"
			/>
		<path d="M932.683,463.814v-34.407h-5.393c-1.44,0-2.157-1.078-2.157-3.235v-1.297c0-2.156,0.717-3.236,2.157-3.236h5.393
			l1.296-11.326c0.143-1.58,1.294-2.374,3.451-2.374h1.08c2.156,0,3.233,0.794,3.233,2.374v11.326h9.063
			c1.437,0,2.155,1.08,2.155,3.236v1.297c0,2.157-0.719,3.235-2.155,3.235h-9.063v33.545c0,5.324,1.943,7.98,5.824,7.98
			c1.223,0,2.269-0.088,3.13-0.267c0.863-0.18,1.365-0.273,1.51-0.273c0.647,0,1.188,0.671,1.618,1.997
			c0.432,1.333,0.646,2.357,0.646,3.074c0,2.158-2.626,3.237-7.872,3.237c-3.597,0-6.814-1.096-9.655-3.292
			C934.104,473.22,932.683,469.353,932.683,463.814z"/>
		<path d="M963.641,449.576c0-5.391,0.735-10.029,2.209-13.916c1.476-3.883,3.47-6.866,5.988-8.951
			c4.745-3.813,10.533-5.717,17.366-5.717c4.17,0,7.908,0.505,11.219,1.509c3.306,1.009,4.961,2.157,4.961,3.453
			c0,0.936-0.415,2.139-1.239,3.614c-0.828,1.477-1.566,2.209-2.212,2.209c-0.073,0-0.199-0.033-0.377-0.105
			c-0.181-0.069-0.326-0.125-0.432-0.162c-0.108-0.037-0.236-0.093-0.38-0.161c-3.882-1.729-7.802-2.591-11.756-2.591
			c-10.428,0-15.641,6.869-15.641,20.602c0,7.625,1.275,13.126,3.831,16.506c2.552,3.381,6.848,5.067,12.888,5.067
			c4.386,0,8.45-0.93,12.188-2.803c0.217-0.07,0.448-0.162,0.702-0.269c0.25-0.108,0.412-0.164,0.485-0.164
			c0.718,0,1.511,0.706,2.372,2.105c0.864,1.402,1.294,2.534,1.294,3.398c0,1.292-1.689,2.531-5.069,3.721
			c-3.38,1.188-7.334,1.779-11.863,1.779c-8.918,0-15.571-2.298-19.956-6.906C965.833,467.198,963.641,459.788,963.641,449.576z"/>
		<path d="M1018.433,461.226v-37.429c0-1.58,1.438-2.374,4.315-2.374h0.433c2.875,0,4.312,0.794,4.312,2.374v36.567
			c0,3.307,0.955,5.878,2.859,7.71c1.904,1.835,4.619,2.752,8.145,2.752c5.176,0,9.706-2.517,13.59-7.551v-39.479
			c0-1.58,1.438-2.374,4.314-2.374h0.432c2.877,0,4.314,0.794,4.314,2.374v38.292c0,4.315,0.178,7.443,0.541,9.385
			c0.502,2.659,0.753,4.066,0.753,4.209c0,0.862-0.681,1.492-2.05,1.888c-1.364,0.394-2.425,0.592-3.181,0.592
			c-0.754,0-1.278-0.073-1.563-0.215c-0.287-0.145-0.557-0.397-0.809-0.757c-0.254-0.359-0.449-0.701-0.594-1.024
			c-0.145-0.322-0.287-0.771-0.434-1.35c-0.145-0.572-0.269-1.025-0.375-1.347c-0.107-0.323-0.218-0.827-0.325-1.513
			c-0.106-0.681-0.197-1.131-0.27-1.347c-4.816,5.396-10.192,8.091-16.124,8.091c-5.934,0-10.465-1.549-13.592-4.637
			C1019.996,470.97,1018.433,466.691,1018.433,461.226z"/>
		<path d="M1079.592,475.896v-76.584c0-1.581,1.437-2.371,4.313-2.371h0.433c2.875,0,4.315,0.791,4.315,2.371v27.183
			c4.745-3.668,10.139-5.502,16.178-5.502c6.041,0,11.073,2.5,15.104,7.497c4.024,4.998,6.039,11.92,6.039,20.765v0.974
			c0,8.34-1.888,15.173-5.663,20.49c-3.775,5.324-8.827,7.984-15.153,7.984c-6.331,0-12.083-2.695-17.261-8.091l-1.726,6.362
			c-0.361,0.863-1.332,1.296-2.91,1.296h-0.432C1080.67,478.269,1079.592,477.479,1079.592,475.896z M1088.652,463.385
			c4.529,4.962,9.166,7.441,13.914,7.441c9.274,0,13.914-7.261,13.914-21.79c0-6.399-1.203-11.325-3.613-14.778
			c-2.412-3.449-5.916-5.211-10.518-5.283h-0.647c-4.818,0-9.168,1.618-13.05,4.854V463.385z"/>
	</g>
</g>
</svg>
