<?xml version="1.0" encoding="utf-8"?>
<!-- Generator: Adobe Illustrator 19.1.0, SVG Export Plug-In . SVG Version: 6.00 Build 0)  -->
<svg version="1.1" id="Calque_1" xmlns="http://www.w3.org/2000/svg" xmlns:xlink="http://www.w3.org/1999/xlink" x="0px" y="0px"
	 viewBox="-479.5 234 209 93" style="enable-background:new -479.5 234 209 93;" xml:space="preserve">
<style type="text/css">
	.st0{fill:#D5D5D5;}
	.st1{fill:#EEEEEE;}
</style>
<rect x="-479.5" y="234" class="st0" width="209" height="93"/>
<path class="st1" d="M-400,259.5v1v40v1h1h48h1v-1v-40v-1h-1h-48H-400z M-398,261.5h46v38h-46V261.5z M-396,263.5v1v21.8
	c0,0.1,0,0.3,0,0.4v9.8v1h1h40h1v-1v-3.8c0-0.1,0-0.3,0-0.4v-27.8v-1h-1h-40H-396L-396,263.5z M-394,265.5h38v24.6l-9.3-9.3
	c-0.2-0.2-0.5-0.3-0.8-0.3c-0.2,0-0.4,0.1-0.6,0.3l-4.2,4.2l-10.3-11.2c-0.2-0.3-0.6-0.4-0.9-0.3c-0.2,0-0.4,0.1-0.5,0.2l-11.3,10.4
	v-18.6L-394,265.5L-394,265.5z M-365,270.5c-1.7,0-3,1.3-3,3s1.3,3,3,3s3-1.3,3-3S-363.3,270.5-365,270.5z M-382.1,275.9l9.7,10.5
	l-2.3,2.3c-0.4,0.4-0.4,1,0,1.4s1,0.4,1.4,0l2.8-2.9c0.1-0.1,0.3-0.2,0.3-0.3l4.1-4.1l10,10v2.6h-38V287L-382.1,275.9z"/>
</svg>
