<svg xmlns="http://www.w3.org/2000/svg" width="50" height="50" viewBox="0 0 50 50">
    <path d="M 6 0 C 4.3555411 0 3 1.3544268 3 3 L 3 11 C 3 13.083333 3.2831581 14.447995 3.53125 15.8125 C 3.7793419 17.177005 4 18.566667 4 21 C 4 23.433333 3.7743388 24.242939 3.53125 25.09375 C 3.2881612 25.944561 3 26.916667 3 29 L 3 38 C 3 39.645573 4.3555411 41 6 41 L 11 41 L 11 42 C 11 46.406438 14.593562 50 19 50 L 20 50 C 24.406438 50 28 46.406438 28 42 L 28 41 L 43 41 C 43.728899 41 44.328286 40.641668 44.96875 39.96875 C 45.609214 39.295832 46.252826 38.277793 46.84375 36.75 C 48.025597 33.694415 49 28.576392 49 20 C 49 11.423608 48.042949 6.5808427 46.84375 3.75 C 45.644551 0.9191573 44.155865 0 43 0 L 23 0 C 21.355541 0 20 1.3544268 20 3 L 20 38 C 20 39.645573 21.355541 41 23 41 L 26 41 L 26 42 C 26 45.325562 23.325562 48 20 48 L 19 48 C 15.674438 48 13 45.325562 13 42 L 13 41 L 16 41 C 17.644459 41 19 39.645573 19 38 L 19 29 C 19 26.916667 18.711839 25.944561 18.46875 25.09375 C 18.225661 24.242939 18 23.433333 18 21 C 18 18.566667 18.220658 17.177005 18.46875 15.8125 C 18.716842 14.447995 19 13.083333 19 11 L 19 3 C 19 1.3544268 17.644459 0 16 0 L 6 0 z M 6 2 L 16 2 C 16.563541 2 17 2.4355732 17 3 L 17 11 C 17 12.916667 16.783158 14.052005 16.53125 15.4375 C 16.279342 16.822995 16 18.433333 16 21 C 16 23.566667 16.274339 24.757061 16.53125 25.65625 C 16.788161 26.555439 17 27.083333 17 29 L 17 38 C 17 38.564427 16.563541 39 16 39 L 12.1875 39 A 1.0001 1.0001 0 0 0 11.78125 39 L 6 39 C 5.4364589 39 5 38.564427 5 38 L 5 29 C 5 27.083333 5.2118388 26.555439 5.46875 25.65625 C 5.7256612 24.757061 6 23.566667 6 21 C 6 18.433333 5.7206581 16.822995 5.46875 15.4375 C 5.2168419 14.052005 5 12.916667 5 11 L 5 3 C 5 2.4355732 5.4364589 2 6 2 z M 23 2 L 43 2 C 42.94814 2 43.975199 2.080843 45 4.5 C 46.024801 6.9191573 47 11.576392 47 20 C 47 28.423608 46.010903 33.305585 44.96875 36 C 44.447674 37.347207 43.931786 38.141668 43.53125 38.5625 C 43.230848 38.878124 42.968162 38.975586 42.9375 39 L 23 39 C 22.436459 39 22 38.564427 22 38 L 22 3 C 22 2.4355732 22.436459 2 23 2 z M 26.8125 5 A 1.0001 1.0001 0 0 0 26 6 L 26 14 A 1.0001 1.0001 0 0 0 27 15 L 41 15 A 1.0001 1.0001 0 0 0 42 14 L 42 6 A 1.0001 1.0001 0 0 0 41 5 L 27 5 A 1.0001 1.0001 0 0 0 26.90625 5 A 1.0001 1.0001 0 0 0 26.8125 5 z M 28 7 L 40 7 L 40 13 L 28 13 L 28 7 z M 27 17 C 26.447 17 26 17.447 26 18 L 26 20 C 26 20.553 26.447 21 27 21 L 29 21 C 29.553 21 30 20.553 30 20 L 30 18 C 30 17.447 29.553 17 29 17 L 27 17 z M 33 17 C 32.447 17 32 17.447 32 18 L 32 20 C 32 20.553 32.447 21 33 21 L 35 21 C 35.553 21 36 20.553 36 20 L 36 18 C 36 17.447 35.553 17 35 17 L 33 17 z M 39 17 C 38.447 17 38 17.447 38 18 L 38 20 C 38 20.553 38.447 21 39 21 L 41 21 C 41.553 21 42 20.553 42 20 L 42 18 C 42 17.447 41.553 17 41 17 L 39 17 z M 27 23 C 26.447 23 26 23.447 26 24 L 26 26 C 26 26.553 26.447 27 27 27 L 29 27 C 29.553 27 30 26.553 30 26 L 30 24 C 30 23.447 29.553 23 29 23 L 27 23 z M 33 23 C 32.447 23 32 23.447 32 24 L 32 26 C 32 26.553 32.447 27 33 27 L 35 27 C 35.553 27 36 26.553 36 26 L 36 24 C 36 23.447 35.553 23 35 23 L 33 23 z M 39 23 C 38.447 23 38 23.447 38 24 L 38 26 C 38 26.553 38.447 27 39 27 L 41 27 C 41.553 27 42 26.553 42 26 L 42 24 C 42 23.447 41.553 23 41 23 L 39 23 z M 27 29 C 26.447 29 26 29.447 26 30 L 26 32 C 26 32.553 26.447 33 27 33 L 29 33 C 29.553 33 30 32.553 30 32 L 30 30 C 30 29.447 29.553 29 29 29 L 27 29 z M 33 29 C 32.447 29 32 29.447 32 30 L 32 32 C 32 32.553 32.447 33 33 33 L 35 33 C 35.553 33 36 32.553 36 32 L 36 30 C 36 29.447 35.553 29 35 29 L 33 29 z M 39 29 C 38.447 29 38 29.447 38 30 L 38 32 C 38 32.553 38.447 33 39 33 L 41 33 C 41.553 33 42 32.553 42 32 L 42 30 C 42 29.447 41.553 29 41 29 L 39 29 z"></path>
</svg>