<?xml version="1.0" encoding="iso-8859-1"?>
<!-- Generator: Adobe Illustrator 19.1.0, SVG Export Plug-In . SVG Version: 6.00 Build 0)  -->
<svg xmlns="http://www.w3.org/2000/svg" width="50" height="50" viewBox="0 0 50 50">
    <path style="text-indent:0;text-align:start;line-height:normal;text-transform:none;block-progression:tb;-inkscape-font-specification:Bitstream Vera Sans" d="M 24.875 1 A 1.0001 1.0001 0 0 0 24.375 1.21875 L 0.375 20.21875 A 1.0001 1.0001 0 0 0 0 21 L 0 27 A 1.0001 1.0001 0 0 0 1.625 27.78125 L 4 25.90625 L 4 48 A 1.0001 1.0001 0 0 0 5 49 L 17 49 A 1.0001 1.0001 0 0 0 18 48 L 18 36.3125 C 18 32.508624 20.797618 29.262666 24.5625 29 C 28.706673 28.735478 32 31.950725 32 36 L 32 48 A 1.0001 1.0001 0 0 0 33 49 L 45 49 A 1.0001 1.0001 0 0 0 46 48 L 46 25.90625 L 48.375 27.78125 A 1.0001 1.0001 0 0 0 50 27 L 50 21 A 1.0001 1.0001 0 0 0 49.625 20.21875 L 25.625 1.21875 A 1.0001 1.0001 0 0 0 24.875 1 z M 25 3.28125 L 48 21.5 L 48 24.9375 L 25.625 7.21875 A 1.0001 1.0001 0 0 0 24.375 7.21875 L 2 24.9375 L 2 21.5 L 25 3.28125 z M 25 9.28125 L 44 24.3125 L 44 47 L 34 47 L 34 36 C 34 30.849275 29.693327 26.664522 24.4375 27 C 19.602382 27.337334 16 31.516376 16 36.3125 L 16 47 L 6 47 L 6 24.3125 L 25 9.28125 z" color="#000" overflow="visible" enable-background="accumulate" font-family="Bitstream Vera Sans"></path>
</svg>